<svg width="15" height="13" viewBox="0 0 15 13" fill="none" xmlns="http://www.w3.org/2000/svg">
<path fill-rule="evenodd" clip-rule="evenodd" d="M13.7588 5.91484L11.1162 8.22109L11.9078 11.6547C11.9935 12.0217 11.851 12.4042 11.5463 12.6259C11.2415 12.8476 10.8337 12.8652 10.5109 12.6707L7.51621 10.8543L4.52793 12.6707C4.20517 12.8652 3.79732 12.8476 3.49257 12.6259C3.18782 12.4042 3.04541 12.0217 3.13105 11.6547L3.92148 8.22461L1.27832 5.91484C0.992486 5.66832 0.882372 5.27443 0.998929 4.91542C1.11549 4.55641 1.43598 4.30231 1.81211 4.2707L5.29609 3.96895L6.65605 0.725195C6.80127 0.377161 7.14144 0.150508 7.51855 0.150508C7.89567 0.150508 8.23584 0.377161 8.38105 0.725195L9.74512 3.96895L13.2279 4.2707C13.6041 4.30231 13.9246 4.55641 14.0411 4.91542C14.1577 5.27443 14.0476 5.66832 13.7617 5.91484H13.7588Z" fill="#F2866E"/>
</svg>
