<svg width="27" height="26" viewBox="0 0 27 26" fill="none" xmlns="http://www.w3.org/2000/svg">
<g id="ChatsTeardrop" clip-path="url(#clip0_2842_5012)">
<path id="Vector" d="M10.6582 17.8613H4.17816C3.96334 17.8613 3.75731 17.7759 3.60541 17.624C3.4535 17.4721 3.36816 17.2661 3.36816 17.0513V10.5713C3.36816 8.63782 4.13622 6.78358 5.50336 5.41644C6.8705 4.0493 8.72474 3.28125 10.6582 3.28125C12.5916 3.28125 14.4458 4.0493 15.813 5.41644C17.1801 6.78358 17.9482 8.63782 17.9482 10.5713C17.9482 12.5047 17.1801 14.3589 15.813 15.7261C14.4458 17.0932 12.5916 17.8613 10.6582 17.8613Z" stroke="#212427" stroke-width="2" stroke-linecap="round" stroke-linejoin="round"/>
<path id="Vector_2" d="M10.2637 17.8612C10.7663 19.2828 11.6973 20.5136 12.9286 21.384C14.1599 22.2544 15.6307 22.7216 17.1385 22.7212H23.6185C23.8334 22.7212 24.0394 22.6359 24.1913 22.484C24.3432 22.3321 24.4285 22.126 24.4285 21.9112V15.4312C24.4285 13.5669 23.7142 11.7734 22.4324 10.4196C21.1507 9.06571 19.399 8.25436 17.5375 8.15234" stroke="#212427" stroke-width="2" stroke-linecap="round" stroke-linejoin="round"/>
</g>
<defs>
<clipPath id="clip0_2842_5012">
<rect width="25.92" height="25.92" fill="white" transform="translate(0.938477 0.0429688)"/>
</clipPath>
</defs>
</svg>
