<svg width="119" height="36" viewBox="0 0 119 36" fill="none" xmlns="http://www.w3.org/2000/svg">
<path d="M65.1984 11.0252H68.4734V21.0502C68.4734 26.2252 65.2984 28.8752 60.8984 28.8752C56.6984 28.8752 53.1234 26.3252 53.1234 21.0502V11.0252H56.3984V21.0502C56.3984 24.2002 58.1984 25.8752 60.9234 25.8752C63.6484 25.8752 65.1984 24.0502 65.1984 21.0502V11.0252ZM74.7525 14.1252V20.3252H79.7025C83.9275 20.3252 83.9025 14.1252 79.7025 14.1252H74.7525ZM79.7025 10.9752C88.2525 10.9752 88.2775 23.3502 79.7025 23.3502H74.7525V28.5002H71.4525V11.0002C74.2025 11.0002 76.9525 10.9752 79.7025 10.9752ZM87.2971 14.1002V11.0002H100.747V12.5502L91.6721 25.3752H100.747V28.5002H87.0721V26.6002L95.9471 14.1002H87.2971ZM105.421 11.0002L109.871 18.2252L114.521 11.0002H118.496V11.1502L111.521 21.2752V28.5002H108.221V21.2752L101.496 11.1502V11.0002H105.421Z" fill="#212427"/>
<path d="M31.2799 25.4451C22.7931 32.9897 13.3088 35.7249 10.096 31.5542C6.88326 27.3836 11.1587 17.8864 19.6455 10.3418C28.1323 2.79718 37.6167 0.0620398 40.8294 4.2327C44.0422 8.40336 39.7667 17.9005 31.2799 25.4451Z" stroke="#1A5850" stroke-width="3"/>
<path d="M11.8872 25.2209C20.0968 33.0746 29.471 36.1613 32.825 32.1152C36.179 28.0692 32.2428 18.4224 24.0332 10.5687C15.8236 2.71496 6.44942 -0.371763 3.09538 3.67432C-0.25865 7.7204 3.67757 17.3671 11.8872 25.2209Z" stroke="#1A5850" stroke-width="3"/>
<path d="M17.8994 24.6763C17.8994 28.4821 19.4917 31.5673 21.456 31.5673C23.4202 31.5673 25.0125 28.4821 25.0125 24.6763C25.0125 20.8706 23.4202 17.7854 21.456 17.7854C19.4917 17.7854 17.8994 20.8706 17.8994 24.6763Z" stroke="#1A5850" stroke-width="3"/>
</svg>
